<svg id="visual" viewBox="0 0 900 600" width="900" height="600" xmlns="http://www.w3.org/2000/svg" xmlns:xlink="http://www.w3.org/1999/xlink" version="1.1"><path d="M0 79L10.7 94.3C21.3 109.7 42.7 140.3 64.2 142.7C85.7 145 107.3 119 128.8 110.5C150.3 102 171.7 111 193 134.8C214.3 158.7 235.7 197.3 257 216.5C278.3 235.7 299.7 235.3 321.2 227.7C342.7 220 364.3 205 385.8 184.8C407.3 164.7 428.7 139.3 450 143.8C471.3 148.3 492.7 182.7 514.2 183.8C535.7 185 557.3 153 578.8 132C600.3 111 621.7 101 643 95.7C664.3 90.3 685.7 89.7 707 109.8C728.3 130 749.7 171 771.2 181.2C792.7 191.3 814.3 170.7 835.8 160.3C857.3 150 878.7 150 889.3 150L900 150L900 0L889.3 0C878.7 0 857.3 0 835.8 0C814.3 0 792.7 0 771.2 0C749.7 0 728.3 0 707 0C685.7 0 664.3 0 643 0C621.7 0 600.3 0 578.8 0C557.3 0 535.7 0 514.2 0C492.7 0 471.3 0 450 0C428.7 0 407.3 0 385.8 0C364.3 0 342.7 0 321.2 0C299.7 0 278.3 0 257 0C235.7 0 214.3 0 193 0C171.7 0 150.3 0 128.8 0C107.3 0 85.7 0 64.2 0C42.7 0 21.3 0 10.7 0L0 0Z" fill="#0066FF" stroke-linecap="round" stroke-linejoin="miter"></path></svg>